# xmcd CD database file
#
# Track frame offsets:
#	150
#	11658
#	16138
#	25890
#	31478
#	45519
#	53971
#	68331
#	86770
#	95518
#	119856
#	130705
#	141322
#	175612
#	178318
#	186811
#	201944
#	209375
#
# Disc length: 2966 seconds
#
# Revision: 0
# Processed by: cddbd v1.5.2PL0 Copyright (c) Steve Scherf et al.
# Submitted via: CDex 1.70beta2
#
DISCID=fd0b9412
DTITLE=Katsura Yamauchi - Houri
DYEAR=2008
DGENRE=Jazz
TTITLE0=Houri
TTITLE1=Mo-To-Ku-Wa-Nai
TTITLE2=Sur
TTITLE3=Kage
TTITLE4=Kage Waltz
TTITLE5=Kurenai Bojou
TTITLE6=Who?
TTITLE7=Kitamyu
TTITLE8=Kiteri
TTITLE9=Chikushi
TTITLE10=Far East
TTITLE11=Inpressions of Ams.
TTITLE12=Improvisation
TTITLE13=Blue Kahkah
TTITLE14=Furufuru
TTITLE15=Salmo
TTITLE16=Kage Ballad
TTITLE17=Houri
EXTD=YEAR: 2008
EXTT0=
EXTT1=
EXTT2=
EXTT3=
EXTT4=
EXTT5=
EXTT6=
EXTT7=
EXTT8=
EXTT9=
EXTT10=
EXTT11=
EXTT12=
EXTT13=
EXTT14=
EXTT15=
EXTT16=
EXTT17=
PLAYORDER=
